<svg width="40" height="40" viewBox="0 0 40 40" fill="none" xmlns="http://www.w3.org/2000/svg">
<rect width="40" height="40" rx="20" fill="#282D32"/>
<path d="M25.6805 15.4126L22.9072 18.3687L15.1623 10.1135C15.6051 9.94164 16.1176 9.95437 16.5903 10.2248L25.6805 15.4115V15.4126ZM29.0708 17.3462C30.3097 18.0537 30.3097 19.9469 29.0708 20.6534L26.4517 22.1478L23.4993 18.9998L26.4517 15.8528L29.0708 17.3462ZM14.4528 10.6205L22.3141 18.9998L14.4528 27.3791C14.1592 27.0355 13.9976 26.5869 14 26.1222V11.8774C14 11.3799 14.1752 10.9461 14.4528 10.6205ZM15.1623 27.8861L22.9072 19.6309L25.6805 22.588L16.5903 27.7747C16.3735 27.9007 16.1339 27.9759 15.8876 27.9951C15.6413 28.0143 15.394 27.9771 15.1623 27.8861Z" fill="white"/>
</svg>
