<svg width="40" height="40" viewBox="0 0 40 40" fill="none" xmlns="http://www.w3.org/2000/svg">
<rect width="40" height="40" rx="20" fill="#282D32"/>
<path d="M24.1363 9C20.7894 9.494 20.4369 12.3117 20.5111 13.3947C22.2495 13.5733 24.5501 11.2173 24.1363 9ZM17.5528 13.5894C17.3546 13.5899 17.1568 13.6086 16.9619 13.6455C9.50085 15.1009 14.2356 28.0417 17.7235 27.9999C18.974 27.9999 19.5389 27.2162 20.8784 27.2162C22.218 27.2162 22.6734 27.9999 23.923 27.9999C25.3868 28.017 27.089 25.7285 28 22.9716C26.5575 22.3294 25.6159 20.8056 25.615 19.1146C25.6169 17.6051 26.3701 16.2152 27.5853 15.479C26.9054 14.567 25.8692 13.902 24.3803 13.6455C22.6577 13.3291 21.9721 14.4634 20.6577 14.4634C19.3525 14.4634 18.8191 13.5951 17.5528 13.5894Z" fill="white"/>
</svg>
