<svg width="40" height="40" viewBox="0 0 40 40" fill="none" xmlns="http://www.w3.org/2000/svg">
<rect width="40" height="40" rx="20" fill="#282D32"/>
<path d="M30.4062 14.8833C30.5774 15.3595 30.0193 16.4532 28.7321 18.1645C28.5536 18.4026 28.3118 18.7189 28.0067 19.1132C27.4263 19.8572 27.0915 20.3446 27.0022 20.5753C26.8757 20.8803 26.9278 21.1817 27.1585 21.4793C27.285 21.6355 27.5863 21.9406 28.0625 22.3945H28.0737L28.1183 22.4391C29.1674 23.4138 29.878 24.236 30.25 24.9056C30.2723 24.9428 30.2946 24.9912 30.317 25.0507C30.3467 25.1028 30.3728 25.1995 30.3951 25.3409C30.4249 25.4822 30.4249 25.6087 30.3951 25.7203C30.3653 25.832 30.2723 25.9361 30.1161 26.0328C29.9598 26.1221 29.7403 26.1668 29.4576 26.1668L26.6004 26.2114C26.4219 26.2486 26.2135 26.23 25.9754 26.1556C25.7374 26.0812 25.5439 25.9994 25.3951 25.9101L25.1719 25.7761C24.9487 25.6199 24.6882 25.3818 24.3906 25.0619C24.093 24.7419 23.8363 24.4555 23.6205 24.2025C23.4122 23.9421 23.1853 23.7263 22.9397 23.5552C22.7016 23.3766 22.4933 23.3171 22.3147 23.3766C22.2924 23.384 22.2626 23.3989 22.2254 23.4212C22.1882 23.4361 22.125 23.4882 22.0357 23.5775C21.9464 23.6668 21.8646 23.7784 21.7902 23.9123C21.7232 24.0388 21.66 24.2322 21.6004 24.4927C21.5484 24.7456 21.526 25.0321 21.5335 25.352C21.5335 25.4636 21.5186 25.5678 21.4888 25.6645C21.4665 25.7538 21.4405 25.8208 21.4107 25.8654L21.3661 25.9212C21.2321 26.0626 21.035 26.1445 20.7746 26.1668H19.4911C18.9628 26.1965 18.4196 26.137 17.8616 25.9882C17.3036 25.832 16.8125 25.6348 16.3884 25.3967C15.9717 25.1511 15.5885 24.9056 15.2388 24.6601C14.8966 24.4071 14.6362 24.1913 14.4576 24.0128L14.1786 23.7449C14.1042 23.6705 14 23.5589 13.8661 23.4101C13.7396 23.2613 13.4754 22.9227 13.0737 22.3945C12.6719 21.8662 12.2775 21.3044 11.8906 20.7092C11.5037 20.1139 11.0461 19.329 10.5179 18.3543C9.99702 17.3796 9.51339 16.3677 9.06696 15.3186C9.02232 15.1995 9 15.0991 9 15.0172C9 14.9354 9.01116 14.8759 9.03348 14.8386L9.07813 14.7717C9.18973 14.6303 9.40179 14.5596 9.71429 14.5596L12.7723 14.5373C12.8616 14.5522 12.9472 14.5782 13.029 14.6154C13.1109 14.6452 13.1704 14.675 13.2076 14.7047L13.2634 14.7382C13.3824 14.82 13.4717 14.9391 13.5313 15.0953C13.6801 15.4674 13.8512 15.8543 14.0446 16.2561C14.2381 16.6504 14.3906 16.9517 14.5022 17.1601L14.6808 17.4837C14.8966 17.9302 15.1049 18.3171 15.3058 18.6445C15.5067 18.9718 15.6853 19.2285 15.8415 19.4145C16.0052 19.5931 16.1615 19.7345 16.3103 19.8386C16.4591 19.9428 16.5856 19.9949 16.6897 19.9949C16.7939 19.9949 16.8943 19.9763 16.9911 19.9391C17.006 19.9317 17.0246 19.9131 17.0469 19.8833C17.0692 19.8535 17.1138 19.7717 17.1808 19.6378C17.2478 19.5038 17.2961 19.329 17.3259 19.1132C17.3631 18.8974 17.4003 18.5961 17.4375 18.2092C17.4747 17.8223 17.4747 17.3572 17.4375 16.8141C17.4226 16.5165 17.3891 16.2449 17.3371 15.9994C17.285 15.7538 17.2329 15.5827 17.1808 15.486L17.1138 15.352C16.9278 15.0991 16.6116 14.9391 16.1652 14.8721C16.0685 14.8572 16.0871 14.768 16.221 14.6043C16.3475 14.4629 16.4888 14.3513 16.6451 14.2695C17.0394 14.076 17.9286 13.9867 19.3125 14.0016C19.9226 14.009 20.4249 14.0574 20.8192 14.1467C20.968 14.1839 21.0908 14.236 21.1875 14.3029C21.2917 14.3625 21.3698 14.4517 21.4219 14.5708C21.474 14.6824 21.5112 14.8014 21.5335 14.9279C21.5632 15.047 21.5781 15.2144 21.5781 15.4302C21.5781 15.6459 21.5744 15.8506 21.567 16.044C21.5595 16.2375 21.5484 16.5016 21.5335 16.8364C21.526 17.1638 21.5223 17.4689 21.5223 17.7516C21.5223 17.8334 21.5186 17.9897 21.5112 18.2203C21.5037 18.451 21.5 18.6296 21.5 18.7561C21.5074 18.8825 21.5223 19.0351 21.5446 19.2136C21.567 19.3848 21.6079 19.5299 21.6674 19.6489C21.7344 19.7605 21.8199 19.8498 21.9241 19.9168C21.9836 19.9317 22.0469 19.9465 22.1138 19.9614C22.1808 19.9763 22.2775 19.9354 22.404 19.8386C22.5305 19.7419 22.6719 19.6154 22.8281 19.4592C22.9844 19.2955 23.1778 19.0462 23.4085 18.7114C23.6391 18.3692 23.8921 17.9674 24.1674 17.5061C24.6138 16.7322 25.0119 15.8952 25.3616 14.9949C25.3914 14.9205 25.4286 14.8572 25.4732 14.8052C25.5179 14.7456 25.5588 14.7047 25.596 14.6824L25.6406 14.6489C25.6555 14.6415 25.6741 14.634 25.6964 14.6266C25.7188 14.6117 25.7671 14.6006 25.8415 14.5931C25.9159 14.5782 25.9903 14.5745 26.0647 14.582L29.279 14.5596C29.5692 14.5224 29.8073 14.5336 29.9933 14.5931C30.1793 14.6452 30.2946 14.7047 30.3393 14.7717L30.4062 14.8833Z" fill="white"/>
</svg>
