<svg width="40" height="40" viewBox="0 0 40 40" fill="none" xmlns="http://www.w3.org/2000/svg">
<rect width="40" height="40" rx="20" fill="#282D32"/>
<path d="M26.1875 26.5208V19.7708H24.7812C24.9201 20.2083 24.9896 20.6632 24.9896 21.1354C24.9896 22.0104 24.7674 22.8194 24.3229 23.5625C23.8785 24.2986 23.2743 24.8819 22.5104 25.3125C21.7465 25.7431 20.9132 25.9583 20.0104 25.9583C18.6424 25.9583 17.4722 25.4896 16.5 24.5521C15.5278 23.6076 15.0417 22.4688 15.0417 21.1354C15.0417 20.6632 15.1111 20.2083 15.25 19.7708H13.7812V26.5208C13.7812 26.7014 13.8403 26.8542 13.9583 26.9792C14.0833 27.0972 14.2361 27.1562 14.4167 27.1562H25.5521C25.7257 27.1562 25.875 27.0972 26 26.9792C26.125 26.8542 26.1875 26.7014 26.1875 26.5208ZM22.2812 23.1771C22.9132 22.566 23.2292 21.8299 23.2292 20.9688C23.2292 20.1076 22.9132 19.375 22.2812 18.7708C21.6562 18.1597 20.8993 17.8542 20.0104 17.8542C19.1285 17.8542 18.3715 18.1597 17.7396 18.7708C17.1146 19.375 16.8021 20.1076 16.8021 20.9688C16.8021 21.8299 17.1146 22.566 17.7396 23.1771C18.3715 23.7812 19.1285 24.0833 20.0104 24.0833C20.8993 24.0833 21.6562 23.7812 22.2812 23.1771ZM26.1875 17.2188V15.5C26.1875 15.3056 26.1181 15.1389 25.9792 15C25.8403 14.8542 25.6701 14.7812 25.4688 14.7812H23.6562C23.4549 14.7812 23.2847 14.8542 23.1458 15C23.0069 15.1389 22.9375 15.3056 22.9375 15.5V17.2188C22.9375 17.4201 23.0069 17.5903 23.1458 17.7292C23.2847 17.8681 23.4549 17.9375 23.6562 17.9375H25.4688C25.6701 17.9375 25.8403 17.8681 25.9792 17.7292C26.1181 17.5903 26.1875 17.4201 26.1875 17.2188ZM28 15.0521V26.9479C28 27.5104 27.7986 27.9931 27.3958 28.3958C26.9931 28.7986 26.5104 29 25.9479 29H14.0521C13.4896 29 13.0069 28.7986 12.6042 28.3958C12.2014 27.9931 12 27.5104 12 26.9479V15.0521C12 14.4896 12.2014 14.0069 12.6042 13.6042C13.0069 13.2014 13.4896 13 14.0521 13H25.9479C26.5104 13 26.9931 13.2014 27.3958 13.6042C27.7986 14.0069 28 14.4896 28 15.0521Z" fill="white"/>
</svg>
