<svg width="193" height="30" fill="none" xmlns="http://www.w3.org/2000/svg"><path d="M76.597 7.871l-5.35 14.468L65.828 7.87h-6.547l8.734 22.092h6.187L82.86 7.87h-6.262zm26.943-.168h-5.786v22.288h5.786V7.703zm42.719 0h-5.786v22.288h5.786V7.703zm-29.614 4.892l-3.085 11.527-3.137-11.536-6.104-.01 5.474 17.415h7.036l5.448-17.395h-5.632zm31.441.001L148.077 30h5.791V12.596h-5.782zm5.782-4.893h-5.791v3.273h5.791V7.703zm13.139 4.902h-11.291v17.386h5.778V16.195h4.343v13.796h5.777V17.02c0-3.482-2.072-4.416-4.607-4.416zM134.422 29.99c2.825 0 4.224-1.433 4.224-4.108v-9.01c0-3.557-2.2-4.276-4.281-4.276h-7.542c-2.064 0-4.286.719-4.286 4.276v9.01c0 2.68 1.403 4.109 4.228 4.109h7.657zm-6.046-3.613v-10.2h4.444v10.2h-4.444zm-32.509-9.341c0-3.492-2.1-4.445-4.924-4.445H82.67l-1.285 3.268h8.717v2.475h-5.844c-2.385 0-4.598.835-4.598 4.449v3.375c0 2.605 1.461 3.823 4.462 3.823h11.745V17.037zm-5.77 9.337h-4.901V21.62h4.902v4.753zm83.229-9.1v8.268a4.662 4.662 0 0 0 .88 2.974c.752.934 1.945 1.48 4.088 1.48h9.219l.822-3.268h-9.24v-2.8h6.125c2.548 0 4.114-1.01 4.114-4.044v-3.24c0-3.16-1.967-4.033-4.545-4.033h-6.544c-2.895-.005-4.919 1.312-4.919 4.663zm5.769-1.069h4.897v4.426h-4.897v-4.426zm10.666 12.554v-.378h1.321v.378h-.44v1.205h-.441v-1.205h-.44zm2.073-.378l.273.934.268-.934h.621v1.587h-.396v-1.153l-.304 1.153h-.339l-.325-1.148v1.148h-.396V28.38h.598zM57.328 0H38.094l-8.862 14.104 9.377 14.948L57.33 0zM19.234 0H0l18.715 29.052L28.092 14.1 19.234 0zm.057 29.953h18.737l-9.364-14.94-9.373 14.94zm21.025-1.055v-.331h1.153v.331h-.391v1.055h-.383v-1.055h-.379zm1.813-.331l.238.798.233-.798h.541v1.4h-.347v-1.022l-.286 1.003h-.295l-.277-1.003v1.003h-.348v-1.4l.541.019z" fill="#fff"/></svg>