<svg width="67" height="81" viewBox="0 0 67 81" fill="none" xmlns="http://www.w3.org/2000/svg">
<path d="M33.4973 60.3041C32.8258 60.3041 32.2808 59.7591 32.2808 59.0876L32.2832 31.6465C32.2832 30.975 32.8282 30.43 33.4997 30.43C34.1712 30.43 34.7162 30.975 34.7162 31.6465L34.7137 59.0876C34.7137 59.7591 34.1688 60.3041 33.4973 60.3041Z" fill="white"/>
<path d="M33.4983 60.3042C33.1869 60.3042 32.8755 60.185 32.6371 59.949L22.1438 49.4557C21.6694 48.9813 21.6694 48.21 22.1438 47.7356C22.6182 47.2612 23.3894 47.2612 23.8639 47.7356L33.4959 57.3676L43.1279 47.7356C43.6023 47.2612 44.3736 47.2612 44.848 47.7356C45.3224 48.21 45.3224 48.9813 44.848 49.4557L34.3547 59.949C34.1212 60.185 33.8097 60.3042 33.4983 60.3042Z" fill="white"/>
<path d="M60.0961 81H6.90462C3.55203 81 0.822266 78.2727 0.822266 74.9176V6.08236C0.822266 2.72733 3.55203 0 6.90462 0H45.5325C46.204 0 46.7489 0.544979 46.7489 1.21647C46.7489 1.88796 46.204 2.43294 45.5325 2.43294H6.90462C4.89258 2.43294 3.25521 4.07031 3.25521 6.08236V74.9176C3.25521 76.9297 4.89258 78.5671 6.90462 78.5671H60.0961C62.1081 78.5671 63.7455 76.9297 63.7455 74.9176V21.1763C63.7455 20.5049 64.2905 19.9599 64.962 19.9599C65.6334 19.9599 66.1784 20.5049 66.1784 21.1763V74.9201C66.1784 78.2727 63.4511 81 60.0961 81Z" fill="white"/>
<path d="M64.9619 22.3925H45.5324C44.8609 22.3925 44.3159 21.8475 44.3159 21.1761V1.74413C44.3159 1.07264 44.8609 0.527658 45.5324 0.527658C46.2039 0.527658 46.7489 1.07264 46.7489 1.74413V19.9571H64.9619C65.6334 19.9571 66.1784 20.5021 66.1784 21.1736C66.1784 21.8451 65.6358 22.3925 64.9619 22.3925Z" fill="white"/>
<path d="M64.9609 22.3937C64.6446 22.3937 64.3283 22.2696 64.0899 22.0264L44.6604 2.06891C44.1933 1.58962 44.203 0.815942 44.6847 0.348817C45.164 -0.120741 45.9353 -0.108577 46.4048 0.373146L65.8343 20.3306C66.3014 20.8099 66.2917 21.5836 65.81 22.0507C65.574 22.2794 65.2674 22.3937 64.9609 22.3937Z" fill="white"/>
</svg>
