<svg width="70" height="70" viewBox="0 0 70 70" fill="none" xmlns="http://www.w3.org/2000/svg">
<path d="M35 70C54.33 70 70 54.33 70 35C70 15.67 54.33 0 35 0C15.67 0 0 15.67 0 35C0 54.33 15.67 70 35 70Z" fill="#00297A"/>
<path d="M42.0633 15.7227C35.7493 16.6327 35.0843 21.8232 35.2243 23.8182C38.5038 24.1472 42.8438 19.8072 42.0633 15.7227ZM29.6436 24.1769C29.2696 24.1777 28.8965 24.2123 28.5288 24.2802C14.4536 26.9612 23.3856 50.7997 29.9656 50.7227C32.3246 50.7227 33.3903 49.2789 35.9173 49.2789C38.4443 49.2789 39.3036 50.7227 41.6608 50.7227C44.4223 50.7542 47.6336 46.5384 49.3521 41.4599C46.6308 40.2769 44.8546 37.4699 44.8528 34.3549C44.8563 31.5742 46.2773 29.0139 48.5698 27.6577C47.2871 25.9777 45.3323 24.7527 42.5236 24.2802C39.2738 23.6974 37.9806 25.7869 35.5008 25.7869C33.0386 25.7869 32.0323 24.1874 29.6436 24.1769Z" fill="white"/>
</svg>
