<svg width="18" height="18" fill="none" xmlns="http://www.w3.org/2000/svg"><path d="M15.2 15.058V7.826h-1.506c.149.468.223.956.223 1.462 0 .937-.238 1.804-.714 2.6a5.223 5.223 0 0 1-1.942 1.875 5.363 5.363 0 0 1-2.678.692c-1.466 0-2.72-.502-3.762-1.507-1.041-1.011-1.562-2.232-1.562-3.66 0-.506.074-.994.223-1.462H1.908v7.232c0 .193.064.357.19.491.134.127.298.19.491.19H14.52a.668.668 0 0 0 .68-.68zm-4.184-3.583c.677-.655 1.015-1.443 1.015-2.366 0-.922-.338-1.707-1.015-2.355-.67-.654-1.481-.982-2.433-.982a3.38 3.38 0 0 0-2.433.982c-.67.648-1.005 1.433-1.005 2.355 0 .923.335 1.711 1.005 2.366a3.397 3.397 0 0 0 2.433.971c.952 0 1.763-.323 2.433-.97zM15.2 5.091V3.25a.73.73 0 0 0-.223-.536.726.726 0 0 0-.547-.234h-1.942a.726.726 0 0 0-.547.234.73.73 0 0 0-.223.536v1.84c0 .216.074.398.223.547a.744.744 0 0 0 .547.223h1.942a.744.744 0 0 0 .547-.223.744.744 0 0 0 .223-.547zm1.942-2.321v12.745c0 .603-.216 1.12-.648 1.552a2.116 2.116 0 0 1-1.55.647H2.198a2.12 2.12 0 0 1-1.552-.647A2.116 2.116 0 0 1 0 15.515V2.77c0-.603.216-1.12.647-1.551A2.116 2.116 0 0 1 2.2.57h12.745c.603 0 1.12.216 1.551.648.432.431.648.948.648 1.551z" fill="#fff"/></svg>