<svg width="17" height="10" viewBox="0 0 17 10" fill="none" xmlns="http://www.w3.org/2000/svg">
<path d="M16.9761 0.722231C17.1118 1.11159 16.6693 2.00591 15.6485 3.40518C15.5069 3.59986 15.3151 3.85842 15.0732 4.18086C14.6129 4.78924 14.3474 5.18773 14.2766 5.37633C14.1763 5.62576 14.2176 5.87215 14.4005 6.11551C14.5008 6.24326 14.7398 6.4927 15.1174 6.86381H15.1263L15.1617 6.90031C15.9937 7.69729 16.5572 8.36955 16.8522 8.91709C16.8699 8.94751 16.8876 8.98705 16.9053 9.03572C16.9289 9.07831 16.9496 9.1574 16.9673 9.27299C16.9909 9.38858 16.9909 9.492 16.9673 9.58326C16.9437 9.67452 16.8699 9.75969 16.746 9.83878C16.6221 9.91178 16.448 9.94829 16.2238 9.94829L13.9579 9.98479C13.8163 10.0152 13.6511 10 13.4623 9.93916C13.2735 9.87832 13.1201 9.8114 13.002 9.7384L12.825 9.62889C12.648 9.50113 12.4415 9.30645 12.2055 9.04485C11.9694 8.78324 11.7659 8.54902 11.5947 8.34217C11.4295 8.12924 11.2496 7.95281 11.0548 7.81288C10.866 7.66687 10.7008 7.6182 10.5592 7.66687C10.5415 7.67295 10.5179 7.68512 10.4884 7.70337C10.4589 7.71554 10.4087 7.75813 10.3379 7.83113C10.2671 7.90414 10.2022 7.99539 10.1432 8.1049C10.0901 8.20833 10.0399 8.3665 9.99272 8.57944C9.95141 8.78629 9.93371 9.02051 9.93961 9.28211C9.93961 9.37337 9.92781 9.45854 9.90421 9.53763C9.88651 9.61064 9.86585 9.66539 9.84225 9.70189L9.80685 9.74752C9.70064 9.86312 9.54427 9.93004 9.33775 9.94829H8.31989C7.90094 9.97262 7.4702 9.92395 7.02765 9.80228C6.5851 9.67452 6.19566 9.5133 5.85933 9.31862C5.52889 9.11785 5.22501 8.91709 4.94768 8.71632C4.67625 8.50947 4.46973 8.33304 4.32811 8.18703L4.10684 7.96802C4.04783 7.90718 3.96522 7.81592 3.85901 7.69425C3.7587 7.57257 3.54923 7.29576 3.23059 6.86381C2.91196 6.43186 2.59923 5.97254 2.29239 5.48583C1.98556 4.99913 1.62267 4.35729 1.20373 3.56032C0.790684 2.76334 0.407143 1.93595 0.0531057 1.07813C0.0177019 0.980792 0 0.898661 0 0.83174C0 0.764818 0.00885095 0.716148 0.0265528 0.685729L0.0619566 0.630975C0.150466 0.515383 0.318634 0.457587 0.56646 0.457587L2.99162 0.439335C3.06243 0.451503 3.13028 0.472796 3.19519 0.503215C3.2601 0.527551 3.3073 0.551886 3.33681 0.576221L3.38106 0.603598C3.47547 0.67052 3.54628 0.76786 3.59348 0.89562C3.7115 1.19981 3.84721 1.51617 4.00063 1.84469C4.15404 2.16713 4.27501 2.41352 4.36352 2.58387L4.50513 2.84851C4.67625 3.21354 4.84147 3.5299 5.00078 3.79758C5.1601 4.06527 5.30172 4.27516 5.42563 4.42726C5.55544 4.57327 5.67936 4.68886 5.79737 4.77403C5.91538 4.8592 6.01569 4.90179 6.0983 4.90179C6.18091 4.90179 6.26057 4.88658 6.33728 4.85616C6.34908 4.85008 6.36383 4.83487 6.38153 4.81053C6.39923 4.7862 6.43464 4.71928 6.48774 4.60977C6.54085 4.50026 6.5792 4.35729 6.60281 4.18086C6.63231 4.00443 6.66181 3.75804 6.69131 3.44168C6.72082 3.12533 6.72082 2.74509 6.69131 2.30097C6.67951 2.05762 6.65296 1.83556 6.61166 1.6348C6.57035 1.43403 6.52905 1.29411 6.48774 1.21502L6.43464 1.10551C6.28712 0.898662 6.03634 0.76786 5.68231 0.713106C5.6056 0.700938 5.62035 0.627933 5.72656 0.49409C5.82687 0.378498 5.93898 0.287242 6.0629 0.22032C6.37563 0.0621413 7.08076 -0.0108641 8.17827 0.00130372C8.66212 0.00738732 9.06042 0.0469317 9.37315 0.119937C9.49116 0.150356 9.58852 0.192943 9.66523 0.247696C9.74784 0.296367 9.8098 0.369372 9.8511 0.466713C9.89241 0.55797 9.92191 0.65531 9.93961 0.758734C9.96321 0.856075 9.97501 0.99296 9.97501 1.16939C9.97501 1.34582 9.97207 1.51312 9.96616 1.6713C9.96026 1.82948 9.95141 2.04545 9.93961 2.31922C9.93371 2.58691 9.93076 2.83635 9.93076 3.06753C9.93076 3.13445 9.92781 3.26221 9.92191 3.45081C9.91601 3.63941 9.91306 3.78542 9.91306 3.88884C9.91896 3.99226 9.93076 4.11698 9.94846 4.26299C9.96616 4.40292 9.99862 4.52155 10.0458 4.61889C10.0989 4.71015 10.1668 4.78316 10.2494 4.83791C10.2966 4.85008 10.3468 4.86225 10.3999 4.87441C10.453 4.88658 10.5297 4.85312 10.63 4.77403C10.7303 4.69494 10.8424 4.59152 10.9663 4.46376C11.0902 4.32991 11.2437 4.12611 11.4266 3.85234C11.6095 3.57248 11.8101 3.24396 12.0284 2.86677C12.3825 2.23405 12.6982 1.54963 12.9755 0.813488C12.9991 0.75265 13.0286 0.700938 13.064 0.658352C13.0994 0.609682 13.1319 0.576221 13.1614 0.557969L13.1968 0.530592C13.2086 0.524509 13.2233 0.518425 13.241 0.512341C13.2587 0.500174 13.2971 0.491048 13.3561 0.484964C13.4151 0.472796 13.4741 0.469755 13.5331 0.475839L16.0822 0.457587C16.3123 0.427168 16.5011 0.436294 16.6486 0.484964C16.7961 0.527551 16.8876 0.576221 16.923 0.630975L16.9761 0.722231Z" fill="white"/>
</svg>
