<svg width="22" height="13" fill="none" xmlns="http://www.w3.org/2000/svg"><path d="M21.406 1.597c.171.476-.387 1.57-1.674 3.281-.178.239-.42.555-.725.95-.58.743-.916 1.23-1.005 1.461-.126.305-.074.607.157.904.126.156.427.461.904.915h.01l.045.045c1.05.975 1.76 1.797 2.132 2.466a.909.909 0 0 1 .067.146.93.93 0 0 1 .078.29.81.81 0 0 1 0 .38c-.03.11-.123.215-.279.312-.156.089-.376.134-.658.134l-2.858.044c-.178.037-.387.019-.625-.056a2.716 2.716 0 0 1-.58-.245l-.223-.134a5.225 5.225 0 0 1-.781-.714 25.79 25.79 0 0 1-.77-.86 3.268 3.268 0 0 0-.681-.647c-.238-.178-.447-.238-.625-.178a.775.775 0 0 0-.279.2c-.09.09-.171.201-.246.335-.067.127-.13.32-.19.58a3.84 3.84 0 0 0-.066.86c0 .111-.015.216-.045.312a.66.66 0 0 1-.078.201l-.045.056c-.134.142-.331.223-.591.246H10.49a5.169 5.169 0 0 1-1.63-.179 6.693 6.693 0 0 1-1.473-.591 17.19 17.19 0 0 1-1.15-.737 7.156 7.156 0 0 1-.78-.647l-.28-.268a9.347 9.347 0 0 1-.312-.335 32.1 32.1 0 0 1-.792-1.016A27.908 27.908 0 0 1 2.89 7.423a35.491 35.491 0 0 1-1.373-2.355 38.05 38.05 0 0 1-1.45-3.036.89.89 0 0 1-.067-.3.36.36 0 0 1 .033-.18l.045-.066c.112-.142.324-.212.636-.212l3.058-.023c.09.015.175.041.257.078.082.03.141.06.179.09l.055.033a.73.73 0 0 1 .268.357c.15.372.32.76.514 1.16.193.395.346.697.457.905l.179.324c.216.446.424.833.625 1.16.2.328.38.584.536.77.163.179.32.32.468.425.15.104.276.156.38.156a.832.832 0 0 0 .301-.056.192.192 0 0 0 .056-.056 1.724 1.724 0 0 0 .279-.77c.037-.216.074-.517.111-.904a8.672 8.672 0 0 0 0-1.395 5.186 5.186 0 0 0-.1-.815c-.052-.245-.104-.416-.156-.513l-.067-.134c-.186-.253-.502-.413-.949-.48-.097-.015-.078-.104.056-.268.126-.141.268-.253.424-.335C8.04.79 8.93.701 10.313.715c.61.008 1.112.056 1.506.146.149.037.272.089.368.156.105.06.183.149.235.268.052.111.09.23.111.357.03.119.045.286.045.502 0 .216-.004.42-.011.614l-.034.792a42.9 42.9 0 0 0-.01.915c0 .082-.004.239-.012.47-.007.23-.011.408-.011.535.007.126.022.279.045.458.022.17.063.316.122.435.067.111.153.2.257.268.06.015.123.03.19.044.067.015.163-.026.29-.122.127-.097.268-.224.424-.38.156-.164.35-.413.58-.748.231-.342.484-.744.76-1.205.446-.774.844-1.61 1.194-2.511a.675.675 0 0 1 .111-.19c.045-.06.086-.1.123-.123l.045-.033a.435.435 0 0 1 .055-.023.37.37 0 0 1 .145-.033.751.751 0 0 1 .224-.011l3.214-.022c.29-.038.528-.027.714.033.186.052.302.112.346.179l.067.111z" fill="#fff"/></svg>