<svg width="70" height="70" viewBox="0 0 70 70" fill="none" xmlns="http://www.w3.org/2000/svg">
<path d="M35 70C54.33 70 70 54.33 70 35C70 15.67 54.33 0 35 0C15.67 0 0 15.67 0 35C0 54.33 15.67 70 35 70Z" fill="#00297A"/>
<path d="M43.2369 28.2076L38.3596 33.0848L24.7394 19.4646C25.5181 19.1811 26.4194 19.2021 27.2506 19.6483L43.2369 28.2058V28.2076ZM49.1991 31.3978C51.3779 32.5651 51.3779 35.6888 49.1991 36.8543L44.5931 39.3201L39.4009 34.1261L44.5931 28.9338L49.1991 31.3978ZM23.4916 20.3011L37.3166 34.1261L23.4916 47.9511C22.9753 47.3843 22.691 46.644 22.6954 45.8773V22.3748C22.6954 21.5541 23.0034 20.8383 23.4916 20.3011ZM24.7394 48.7876L38.3596 35.1673L43.2369 40.0463L27.2506 48.6038C26.8693 48.8117 26.448 48.9357 26.0149 48.9674C25.5817 48.9991 25.1468 48.9378 24.7394 48.7876Z" fill="white"/>
</svg>
