<svg width="26" height="32" viewBox="0 0 26 32" fill="none" xmlns="http://www.w3.org/2000/svg">
<path d="M21.739 31.7168L4.25898 31.7168C3.25116 31.7168 2.28462 31.3165 1.57198 30.6038C0.85934 29.8912 0.458984 28.9246 0.458984 27.9168L0.458989 4.0832C0.458989 3.07538 0.859345 2.10884 1.57198 1.3962C2.28462 0.683559 3.25117 0.283203 4.25899 0.283203L16.077 0.283205C16.3792 0.283472 16.669 0.403752 16.8826 0.617606L25.2122 8.94341C25.4233 9.15823 25.5407 9.44785 25.539 9.74901L25.539 27.9168C25.539 28.9246 25.1386 29.8912 24.426 30.6038C23.7134 31.3165 22.7468 31.7168 21.739 31.7168ZM17.217 4.17441V8.61281L21.6554 8.61281L17.217 4.17441ZM23.259 10.8928L16.837 10.8928C16.3331 10.8928 15.8498 10.6926 15.4935 10.3363C15.1372 9.97999 14.937 9.49672 14.937 8.99281L14.937 2.56321L4.25899 2.5632C3.85586 2.5632 3.46924 2.72334 3.18419 3.0084C2.89913 3.29345 2.73899 3.68007 2.73899 4.0832L2.73898 27.9168C2.73898 28.3199 2.89913 28.7066 3.18418 28.9916C3.46924 29.2767 3.85585 29.4368 4.25898 29.4368L21.739 29.4368C22.1421 29.4368 22.5287 29.2767 22.8138 28.9916C23.0988 28.7066 23.259 28.3199 23.259 27.9168L23.259 10.8928Z" fill="#FF3333"/>
<path d="M7.39408 22.6506L14.4241 22.6506C14.7264 22.6506 15.0164 22.7707 15.2302 22.9845C15.444 23.1983 15.5641 23.4882 15.5641 23.7906C15.5641 24.0929 15.444 24.3829 15.2302 24.5967C15.0164 24.8105 14.7264 24.9306 14.4241 24.9306H7.39408C7.09173 24.9306 6.80177 24.8105 6.58798 24.5967C6.37419 24.3829 6.25408 24.0929 6.25408 23.7906C6.25408 23.4882 6.37419 23.1983 6.58798 22.9845C6.80177 22.7707 7.09173 22.6506 7.39408 22.6506Z" fill="#FF3333"/>
<path d="M19.3641 18.8499L7.39408 18.8499C7.09173 18.8499 6.80177 18.7298 6.58798 18.516C6.37419 18.3022 6.25408 18.0122 6.25408 17.7099C6.25408 17.4075 6.37419 17.1176 6.58798 16.9038C6.80177 16.69 7.09173 16.5699 7.39408 16.5699L19.3641 16.5699C19.6664 16.5699 19.9564 16.69 20.1702 16.9038C20.384 17.1176 20.5041 17.4075 20.5041 17.7099C20.5041 18.0122 20.384 18.3022 20.1702 18.516C19.9564 18.7298 19.6664 18.8499 19.3641 18.8499Z" fill="#FF3333"/>
</svg>
