<svg width="193" height="30" viewBox="0 0 193 30" fill="none" xmlns="http://www.w3.org/2000/svg">
<g clip-path="url(#clip0)">
<path d="M76.5967 7.87109L71.2458 22.3389L65.829 7.87109H59.2812L68.016 29.9626H74.2029L82.8584 7.87109H76.5967Z" fill="#004990"/>
<path d="M103.54 7.70312H97.7539V29.9907H103.54V7.70312Z" fill="#004990"/>
<path d="M146.259 7.70312H140.473V29.9907H146.259V7.70312Z" fill="#004990"/>
<path d="M116.644 12.5958L113.559 24.1224L110.422 12.5865L104.318 12.5771L109.792 29.9908H116.829L122.276 12.5958H116.644Z" fill="#004990"/>
<path d="M148.085 12.5957L148.076 30H153.867V12.5957H148.085Z" fill="#004990"/>
<path d="M153.867 7.70312H148.076V10.9758H153.867V7.70312Z" fill="#004990"/>
<path d="M167.008 12.6055H155.717V29.9911H161.494V16.1956H165.838V29.9911H171.615V17.0219C171.615 13.5392 169.543 12.6055 167.008 12.6055Z" fill="#004990"/>
<path d="M134.423 29.9907C137.248 29.9907 138.647 28.5574 138.647 25.8823C138.647 23.5481 138.647 16.8721 138.647 16.8721C138.647 13.3147 136.447 12.5957 134.365 12.5957H126.823C124.759 12.5957 122.537 13.3147 122.537 16.8721C122.537 16.8721 122.537 23.5247 122.537 25.8823C122.537 28.5621 123.941 29.9907 126.766 29.9907H134.423ZM128.376 26.3772V16.1765H132.821V26.3772H128.376Z" fill="#004990"/>
<path d="M95.8667 17.0353C95.8667 13.5432 93.7677 12.5908 90.9427 12.5908H82.67L81.3851 15.8588H90.1022V18.3331H84.2585C81.8735 18.3331 79.6602 19.1688 79.6602 22.7822C79.6602 24.8831 79.6602 26.1576 79.6602 26.1576C79.6602 28.7626 81.1211 29.9811 84.1221 29.9811H95.8667V17.0353ZM90.0978 26.3723H85.1958V21.6198H90.0978V26.3723Z" fill="#004990"/>
<path d="M173.326 17.2733V25.5412C173.274 26.6124 173.586 27.6676 174.206 28.5151C174.958 29.4488 176.151 29.995 178.294 29.995H187.513L188.336 26.727H179.095V23.9259H185.22C187.768 23.9259 189.334 22.9175 189.334 19.883C189.334 17.7775 189.334 16.643 189.334 16.643C189.334 13.4824 187.367 12.6094 184.789 12.6094H178.245C175.35 12.6047 173.326 13.9212 173.326 17.2733ZM179.095 16.2042H183.992V20.6299H179.095V16.2042Z" fill="#004990"/>
<path d="M189.762 28.758V28.3799H191.082V28.758H190.642V29.9625H190.202V28.758H189.762ZM191.834 28.3799L192.107 29.3136L192.376 28.3799H192.996V29.9672H192.6V28.8141L192.296 29.9672H191.958L191.632 28.8187V29.9672H191.236V28.3799H191.834Z" fill="#004990"/>
<path d="M57.3288 0H38.0948L29.2324 14.1036L38.6096 29.0523L57.3288 0Z" fill="#00AEEF"/>
<path d="M19.234 0H0L18.7148 29.0523L28.0919 14.099L19.234 0Z" fill="#ED1C24"/>
<path d="M19.291 29.953H38.0278L28.6638 15.0137L19.291 29.953Z" fill="#004990"/>
<path d="M40.3164 28.898V28.5665H41.4693V28.898H41.0777V29.9531H40.6948V28.898H40.3164ZM42.1294 28.5665L42.367 29.3648L42.6002 28.5665H43.1414V29.9671H42.7938V28.9447L42.5078 29.9484H42.213L41.9357 28.9447V29.9484H41.5881V28.5479L42.1294 28.5665Z" fill="#004990"/>
</g>
<defs>
<clipPath id="clip0">
<rect width="193" height="30" fill="white"/>
</clipPath>
</defs>
</svg>
