<svg width="39" height="50" fill="none" xmlns="http://www.w3.org/2000/svg"><path d="M37.188 3.646c-.938-1.042-2.292-1.563-3.646-1.563h-16.98c-.729 0-1.354.104-1.979.417-.625.312-1.25.625-1.666 1.146L2.813 13.75c-.521.52-.834 1.041-1.146 1.666-.313.625-.417 1.25-.417 1.98V44.79c0 1.355.52 2.709 1.563 3.646C3.75 49.48 5.104 50 6.457 50h27.084c1.354 0 2.708-.521 3.645-1.563.938-1.041 1.563-2.291 1.563-3.646v-37.5c0-1.354-.52-2.708-1.563-3.645zm-.521 41.145c0 .834-.313 1.667-.938 2.188-.625.52-1.354.937-2.187.937H6.458c-.833 0-1.666-.312-2.187-.937-.625-.521-.938-1.354-.938-2.188V17.396c0-.417.104-.834.209-1.146.208-.417.416-.73.625-1.042L14.27 5.104c.312-.313.625-.521 1.041-.73.417-.103.834-.208 1.25-.208h16.98c.833 0 1.666.313 2.187.938.625.52.938 1.354.938 2.187v37.5zm-25-1.041H32.5v2.083H11.667V43.75zm-4.167 0h2.083v2.083H7.5V43.75zm10.417-30.21h9.375c.833 0 1.875-.416 2.5-1.041l3.75-3.75c.729-.73.52-1.354.416-1.667-.104-.208-.416-.833-1.458-.833H17.917a2.09 2.09 0 0 0-2.084 2.083v3.125a2.09 2.09 0 0 0 2.084 2.083zm0-5.208h13.125l-2.709 2.708c-.208.209-.729.417-1.041.417h-9.375V8.333zM2.604 11.146L.937 9.479C.313 8.958 0 8.125 0 7.29c0-.833.313-1.666.938-2.187L4.27 1.77C5.417.625 7.5.625 8.646 1.77l1.666 1.666-1.458 1.459-1.666-1.667a1.007 1.007 0 0 0-1.459 0L2.396 6.562c-.208.209-.313.417-.313.73 0 .312.104.52.313.729l1.667 1.666-1.459 1.459z" fill="#fff"/><path d="M31 23h-7.381l-3.401 4.708 3.599 4.991 7.183-9.7zm-14.619 0H9l7.182 9.699 3.598-4.992L16.381 23zm.022 10h7.19L20 28.012 16.403 33z" fill="#fff"/></svg>